<mxfile host="c1bdad41-70f2-44e2-aae9-db14e5049974" modified="2020-09-19T04:33:44.280Z" agent="5.0 (Windows NT 10.0; Win64; x64) AppleWebKit/537.36 (KHTML, like Gecko) Code/1.49.0 Chrome/83.0.4103.122 Electron/9.2.1 Safari/537.36" etag="tra9k6JLogPwJbp-v0Bq" version="13.1.3">
    <diagram id="6hGFLwfOUW9BJ-s0fimq" name="Page-1">
        <mxGraphModel dx="603" dy="353" grid="1" gridSize="10" guides="1" tooltips="1" connect="1" arrows="1" fold="1" page="1" pageScale="1" pageWidth="1169" pageHeight="827" math="0" shadow="0">
            <root>
                <mxCell id="0"/>
                <mxCell id="1" parent="0"/>
                <mxCell id="97" value="" style="rounded=1;whiteSpace=wrap;html=1;strokeColor=#FAD9D5;fillColor=none;" vertex="1" parent="1">
                    <mxGeometry x="40" y="600" width="840" height="180" as="geometry"/>
                </mxCell>
                <mxCell id="90" value="" style="rounded=1;whiteSpace=wrap;html=1;strokeColor=#B0E3E6;fillColor=none;" vertex="1" parent="1">
                    <mxGeometry x="120" width="760" height="580" as="geometry"/>
                </mxCell>
                <mxCell id="17" value="" style="group" vertex="1" connectable="0" parent="1">
                    <mxGeometry x="160" y="40" width="710" height="440" as="geometry"/>
                </mxCell>
                <mxCell id="10" value="" style="rounded=1;whiteSpace=wrap;html=1;fillColor=none;" vertex="1" parent="17">
                    <mxGeometry width="120" height="120" as="geometry"/>
                </mxCell>
                <mxCell id="11" value="&lt;font style=&quot;font-size: 20px&quot;&gt;IMU&lt;/font&gt;" style="text;html=1;strokeColor=none;fillColor=none;align=center;verticalAlign=middle;whiteSpace=wrap;rounded=0;" vertex="1" parent="17">
                    <mxGeometry x="40" y="50" width="40" height="20" as="geometry"/>
                </mxCell>
                <mxCell id="16" value="" style="group" vertex="1" connectable="0" parent="17">
                    <mxGeometry y="160" width="120" height="120" as="geometry"/>
                </mxCell>
                <mxCell id="49" value="" style="group" vertex="1" connectable="0" parent="16">
                    <mxGeometry width="120" height="120" as="geometry"/>
                </mxCell>
                <mxCell id="14" value="" style="rounded=1;whiteSpace=wrap;html=1;fillColor=none;" vertex="1" parent="49">
                    <mxGeometry width="120" height="120" as="geometry"/>
                </mxCell>
                <mxCell id="15" value="&lt;font style=&quot;font-size: 20px&quot;&gt;GPIO&lt;br&gt;LED&lt;/font&gt;" style="text;html=1;strokeColor=none;fillColor=none;align=center;verticalAlign=middle;whiteSpace=wrap;rounded=0;" vertex="1" parent="49">
                    <mxGeometry x="40" y="50" width="40" height="20" as="geometry"/>
                </mxCell>
                <mxCell id="69" value="" style="group" vertex="1" connectable="0" parent="17">
                    <mxGeometry x="10" y="320" width="120" height="120" as="geometry"/>
                </mxCell>
                <mxCell id="61" value="" style="rounded=1;whiteSpace=wrap;html=1;fillColor=none;" vertex="1" parent="69">
                    <mxGeometry x="-10" width="120" height="120" as="geometry"/>
                </mxCell>
                <mxCell id="62" value="&lt;font style=&quot;font-size: 20px&quot;&gt;DC/DC&lt;br&gt;3.3V&lt;br&gt;&lt;/font&gt;" style="text;html=1;strokeColor=none;fillColor=none;align=center;verticalAlign=middle;whiteSpace=wrap;rounded=0;" vertex="1" parent="69">
                    <mxGeometry x="30" y="50" width="40" height="20" as="geometry"/>
                </mxCell>
                <mxCell id="64" value="" style="endArrow=classic;html=1;fillColor=#fad9d5;strokeColor=#ae4132;exitX=0;exitY=0.25;exitDx=0;exitDy=0;entryX=0;entryY=0.5;entryDx=0;entryDy=0;rounded=0;" edge="1" parent="17" source="61" target="10">
                    <mxGeometry width="50" height="50" relative="1" as="geometry">
                        <mxPoint x="630" y="610" as="sourcePoint"/>
                        <mxPoint x="430" y="650" as="targetPoint"/>
                        <Array as="points">
                            <mxPoint x="-80" y="350"/>
                            <mxPoint x="-80" y="60"/>
                        </Array>
                    </mxGeometry>
                </mxCell>
                <mxCell id="13" value="3.3VA&amp;lt;-&amp;gt;5V" style="rounded=1;whiteSpace=wrap;html=1;fillColor=none;" vertex="1" parent="1">
                    <mxGeometry x="300" y="520" width="120" height="40" as="geometry"/>
                </mxCell>
                <mxCell id="24" value="" style="group" vertex="1" connectable="0" parent="1">
                    <mxGeometry x="720" y="40" width="120" height="120" as="geometry"/>
                </mxCell>
                <mxCell id="8" value="" style="rounded=1;whiteSpace=wrap;html=1;fillColor=none;" vertex="1" parent="24">
                    <mxGeometry width="120" height="120" as="geometry"/>
                </mxCell>
                <mxCell id="9" value="&lt;font style=&quot;font-size: 20px&quot;&gt;USB&lt;br&gt;UART&lt;br&gt;&lt;/font&gt;" style="text;html=1;strokeColor=none;fillColor=none;align=center;verticalAlign=middle;whiteSpace=wrap;rounded=0;" vertex="1" parent="24">
                    <mxGeometry x="40" y="50" width="40" height="20" as="geometry"/>
                </mxCell>
                <mxCell id="25" value="" style="group" vertex="1" connectable="0" parent="1">
                    <mxGeometry x="720" y="360" width="120" height="120" as="geometry"/>
                </mxCell>
                <mxCell id="26" value="" style="rounded=1;whiteSpace=wrap;html=1;fillColor=none;" vertex="1" parent="25">
                    <mxGeometry width="120" height="120" as="geometry"/>
                </mxCell>
                <mxCell id="27" value="&lt;font style=&quot;font-size: 20px&quot;&gt;DC/DC&lt;br&gt;3.3VA&lt;br&gt;&lt;/font&gt;" style="text;html=1;strokeColor=none;fillColor=none;align=center;verticalAlign=middle;whiteSpace=wrap;rounded=0;" vertex="1" parent="25">
                    <mxGeometry x="40" y="50" width="40" height="20" as="geometry"/>
                </mxCell>
                <mxCell id="28" value="" style="group" vertex="1" connectable="0" parent="1">
                    <mxGeometry x="960" y="200" width="120" height="120" as="geometry"/>
                </mxCell>
                <mxCell id="29" value="" style="rounded=1;whiteSpace=wrap;html=1;fillColor=none;" vertex="1" parent="28">
                    <mxGeometry width="120" height="120" as="geometry"/>
                </mxCell>
                <mxCell id="30" value="&lt;font style=&quot;font-size: 20px&quot;&gt;LiPo&lt;br&gt;Charge&lt;br&gt;&lt;/font&gt;" style="text;html=1;strokeColor=none;fillColor=none;align=center;verticalAlign=middle;whiteSpace=wrap;rounded=0;" vertex="1" parent="28">
                    <mxGeometry x="40" y="50" width="40" height="20" as="geometry"/>
                </mxCell>
                <mxCell id="33" value="" style="endArrow=classic;startArrow=classic;html=1;exitX=0.5;exitY=0;exitDx=0;exitDy=0;entryX=0.5;entryY=1;entryDx=0;entryDy=0;fillColor=#b0e3e6;strokeColor=#0e8088;rounded=0;" edge="1" parent="1" source="13" target="2">
                    <mxGeometry width="50" height="50" relative="1" as="geometry">
                        <mxPoint x="610" y="400" as="sourcePoint"/>
                        <mxPoint x="660" y="350" as="targetPoint"/>
                        <Array as="points">
                            <mxPoint x="360" y="420"/>
                            <mxPoint x="500" y="420"/>
                        </Array>
                    </mxGeometry>
                </mxCell>
                <mxCell id="34" value="" style="endArrow=classic;startArrow=classic;html=1;exitX=0.5;exitY=0;exitDx=0;exitDy=0;entryX=0.5;entryY=1;entryDx=0;entryDy=0;fillColor=#b0e3e6;strokeColor=#0e8088;rounded=0;" edge="1" parent="1" source="6" target="13">
                    <mxGeometry width="50" height="50" relative="1" as="geometry">
                        <mxPoint x="450" y="440" as="sourcePoint"/>
                        <mxPoint x="500" y="390" as="targetPoint"/>
                        <Array as="points">
                            <mxPoint x="460" y="590"/>
                            <mxPoint x="360" y="590"/>
                        </Array>
                    </mxGeometry>
                </mxCell>
                <mxCell id="36" value="" style="group" vertex="1" connectable="0" parent="1">
                    <mxGeometry x="400" y="620" width="120" height="120" as="geometry"/>
                </mxCell>
                <mxCell id="21" value="" style="group" vertex="1" connectable="0" parent="36">
                    <mxGeometry width="120" height="120" as="geometry"/>
                </mxCell>
                <mxCell id="6" value="" style="rounded=1;whiteSpace=wrap;html=1;fillColor=none;" vertex="1" parent="21">
                    <mxGeometry width="120" height="120" as="geometry"/>
                </mxCell>
                <mxCell id="7" value="&lt;font style=&quot;font-size: 20px&quot;&gt;MD&lt;/font&gt;" style="text;html=1;strokeColor=none;fillColor=none;align=center;verticalAlign=middle;whiteSpace=wrap;rounded=0;" vertex="1" parent="21">
                    <mxGeometry x="40" y="50" width="40" height="20" as="geometry"/>
                </mxCell>
                <mxCell id="37" value="" style="group" vertex="1" connectable="0" parent="1">
                    <mxGeometry x="960" y="40" width="120" height="120" as="geometry"/>
                </mxCell>
                <mxCell id="38" value="" style="rounded=1;whiteSpace=wrap;html=1;fillColor=none;" vertex="1" parent="37">
                    <mxGeometry width="120" height="120" as="geometry"/>
                </mxCell>
                <mxCell id="39" value="&lt;font style=&quot;font-size: 20px&quot;&gt;USB&lt;br&gt;&lt;/font&gt;" style="text;html=1;strokeColor=none;fillColor=none;align=center;verticalAlign=middle;whiteSpace=wrap;rounded=0;" vertex="1" parent="37">
                    <mxGeometry x="40" y="50" width="40" height="20" as="geometry"/>
                </mxCell>
                <mxCell id="40" value="" style="group" vertex="1" connectable="0" parent="1">
                    <mxGeometry x="960" y="360" width="120" height="120" as="geometry"/>
                </mxCell>
                <mxCell id="41" value="" style="rounded=1;whiteSpace=wrap;html=1;fillColor=none;" vertex="1" parent="40">
                    <mxGeometry width="120" height="120" as="geometry"/>
                </mxCell>
                <mxCell id="42" value="&lt;font style=&quot;font-size: 20px&quot;&gt;LiPo&lt;br&gt;&lt;/font&gt;" style="text;html=1;strokeColor=none;fillColor=none;align=center;verticalAlign=middle;whiteSpace=wrap;rounded=0;" vertex="1" parent="40">
                    <mxGeometry x="40" y="50" width="40" height="20" as="geometry"/>
                </mxCell>
                <mxCell id="43" value="" style="endArrow=classic;startArrow=classic;html=1;exitX=1;exitY=0.25;exitDx=0;exitDy=0;entryX=0;entryY=0.5;entryDx=0;entryDy=0;fillColor=#b0e3e6;strokeColor=#0e8088;rounded=0;" edge="1" parent="1" source="2" target="8">
                    <mxGeometry width="50" height="50" relative="1" as="geometry">
                        <mxPoint x="585" y="90" as="sourcePoint"/>
                        <mxPoint x="665" y="10" as="targetPoint"/>
                        <Array as="points">
                            <mxPoint x="680" y="190"/>
                            <mxPoint x="680" y="100"/>
                        </Array>
                    </mxGeometry>
                </mxCell>
                <mxCell id="44" value="" style="group" vertex="1" connectable="0" parent="1">
                    <mxGeometry x="360" y="120" width="280" height="280" as="geometry"/>
                </mxCell>
                <mxCell id="2" value="" style="rounded=1;whiteSpace=wrap;html=1;fillColor=none;" vertex="1" parent="44">
                    <mxGeometry width="280" height="280" as="geometry"/>
                </mxCell>
                <mxCell id="3" value="&lt;font style=&quot;font-size: 20px&quot;&gt;MCU&lt;/font&gt;" style="text;html=1;strokeColor=none;fillColor=none;align=center;verticalAlign=middle;whiteSpace=wrap;rounded=0;" vertex="1" parent="44">
                    <mxGeometry x="120" y="130" width="40" height="20" as="geometry"/>
                </mxCell>
                <mxCell id="45" value="&lt;font style=&quot;font-size: 20px&quot;&gt;I2C&lt;/font&gt;" style="text;html=1;strokeColor=none;fillColor=none;align=center;verticalAlign=middle;whiteSpace=wrap;rounded=0;" vertex="1" parent="44">
                    <mxGeometry x="120" y="250" width="40" height="20" as="geometry"/>
                </mxCell>
                <mxCell id="46" value="&lt;font style=&quot;font-size: 20px&quot;&gt;SPI&lt;/font&gt;" style="text;html=1;strokeColor=none;fillColor=none;align=center;verticalAlign=middle;whiteSpace=wrap;rounded=0;" vertex="1" parent="44">
                    <mxGeometry x="20" y="60" width="40" height="20" as="geometry"/>
                </mxCell>
                <mxCell id="55" value="&lt;font style=&quot;font-size: 20px&quot;&gt;GPIO&lt;/font&gt;" style="text;html=1;strokeColor=none;fillColor=none;align=center;verticalAlign=middle;whiteSpace=wrap;rounded=0;" vertex="1" parent="44">
                    <mxGeometry x="20" y="200" width="40" height="20" as="geometry"/>
                </mxCell>
                <mxCell id="58" value="&lt;font style=&quot;font-size: 20px&quot;&gt;Power&lt;/font&gt;" style="text;html=1;strokeColor=none;fillColor=none;align=center;verticalAlign=middle;whiteSpace=wrap;rounded=0;" vertex="1" parent="44">
                    <mxGeometry x="220" y="200" width="40" height="20" as="geometry"/>
                </mxCell>
                <mxCell id="82" value="&lt;font style=&quot;font-size: 20px&quot;&gt;PWM&lt;/font&gt;" style="text;html=1;strokeColor=none;fillColor=none;align=center;verticalAlign=middle;whiteSpace=wrap;rounded=0;" vertex="1" parent="44">
                    <mxGeometry x="190" y="250" width="40" height="20" as="geometry"/>
                </mxCell>
                <mxCell id="47" value="" style="endArrow=classic;startArrow=classic;html=1;exitX=1;exitY=0.5;exitDx=0;exitDy=0;entryX=0;entryY=0.25;entryDx=0;entryDy=0;fillColor=#b0e3e6;strokeColor=#0e8088;rounded=0;" edge="1" parent="1" source="10" target="2">
                    <mxGeometry width="50" height="50" relative="1" as="geometry">
                        <mxPoint x="650" y="200" as="sourcePoint"/>
                        <mxPoint x="730" y="110" as="targetPoint"/>
                        <Array as="points">
                            <mxPoint x="320" y="100"/>
                            <mxPoint x="320" y="190"/>
                        </Array>
                    </mxGeometry>
                </mxCell>
                <mxCell id="51" value="" style="group" vertex="1" connectable="0" parent="1">
                    <mxGeometry x="720" y="200" width="120" height="120" as="geometry"/>
                </mxCell>
                <mxCell id="52" value="" style="group" vertex="1" connectable="0" parent="51">
                    <mxGeometry width="120" height="120" as="geometry"/>
                </mxCell>
                <mxCell id="53" value="" style="rounded=1;whiteSpace=wrap;html=1;fillColor=none;" vertex="1" parent="52">
                    <mxGeometry width="120" height="120" as="geometry"/>
                </mxCell>
                <mxCell id="54" value="&lt;span style=&quot;font-size: 20px&quot;&gt;UART&lt;br&gt;Power&lt;br&gt;LED&lt;/span&gt;" style="text;html=1;strokeColor=none;fillColor=none;align=center;verticalAlign=middle;whiteSpace=wrap;rounded=0;" vertex="1" parent="52">
                    <mxGeometry x="40" y="50" width="40" height="20" as="geometry"/>
                </mxCell>
                <mxCell id="56" value="" style="endArrow=classic;startArrow=classic;html=1;exitX=1;exitY=0.5;exitDx=0;exitDy=0;entryX=0;entryY=0.75;entryDx=0;entryDy=0;fillColor=#b0e3e6;strokeColor=#0e8088;rounded=0;" edge="1" parent="1" source="14" target="2">
                    <mxGeometry width="50" height="50" relative="1" as="geometry">
                        <mxPoint x="290" y="110.00000000000011" as="sourcePoint"/>
                        <mxPoint x="370" y="200.0000000000001" as="targetPoint"/>
                        <Array as="points">
                            <mxPoint x="320" y="260"/>
                            <mxPoint x="320" y="330"/>
                        </Array>
                    </mxGeometry>
                </mxCell>
                <mxCell id="57" value="" style="endArrow=classic;startArrow=classic;html=1;exitX=0.5;exitY=0;exitDx=0;exitDy=0;entryX=0.5;entryY=1;entryDx=0;entryDy=0;fillColor=#b0e3e6;strokeColor=#0e8088;rounded=0;" edge="1" parent="1" source="53" target="8">
                    <mxGeometry width="50" height="50" relative="1" as="geometry">
                        <mxPoint x="650" y="200.0000000000001" as="sourcePoint"/>
                        <mxPoint x="730" y="150.0000000000001" as="targetPoint"/>
                        <Array as="points"/>
                    </mxGeometry>
                </mxCell>
                <mxCell id="59" value="" style="endArrow=classic;html=1;fillColor=#fad9d5;strokeColor=#ae4132;exitX=0;exitY=0.5;exitDx=0;exitDy=0;entryX=1;entryY=0.75;entryDx=0;entryDy=0;rounded=0;" edge="1" parent="1" source="26" target="2">
                    <mxGeometry width="50" height="50" relative="1" as="geometry">
                        <mxPoint x="620" y="380" as="sourcePoint"/>
                        <mxPoint x="670" y="330" as="targetPoint"/>
                        <Array as="points">
                            <mxPoint x="690" y="420"/>
                            <mxPoint x="690" y="330"/>
                        </Array>
                    </mxGeometry>
                </mxCell>
                <mxCell id="60" value="" style="group" vertex="1" connectable="0" parent="1">
                    <mxGeometry x="800" y="690" width="120" height="120" as="geometry"/>
                </mxCell>
                <mxCell id="65" value="" style="group" vertex="1" connectable="0" parent="60">
                    <mxGeometry x="-80" y="-70" width="120" height="120" as="geometry"/>
                </mxCell>
                <mxCell id="66" value="" style="rounded=1;whiteSpace=wrap;html=1;fillColor=none;" vertex="1" parent="65">
                    <mxGeometry width="120" height="120" as="geometry"/>
                </mxCell>
                <mxCell id="67" value="&lt;font style=&quot;font-size: 20px&quot;&gt;DC/DC&lt;br&gt;5V&lt;br&gt;&lt;/font&gt;" style="text;html=1;strokeColor=none;fillColor=none;align=center;verticalAlign=middle;whiteSpace=wrap;rounded=0;" vertex="1" parent="65">
                    <mxGeometry x="40" y="50" width="40" height="20" as="geometry"/>
                </mxCell>
                <mxCell id="63" value="" style="endArrow=classic;html=1;fillColor=#fad9d5;strokeColor=#ae4132;entryX=0.5;entryY=1;entryDx=0;entryDy=0;rounded=0;" edge="1" parent="1" target="4">
                    <mxGeometry width="50" height="50" relative="1" as="geometry">
                        <mxPoint x="460" y="760" as="sourcePoint"/>
                        <mxPoint x="650" y="400" as="targetPoint"/>
                        <Array as="points">
                            <mxPoint x="300" y="760"/>
                        </Array>
                    </mxGeometry>
                </mxCell>
                <mxCell id="68" value="" style="endArrow=classic;html=1;fillColor=#fad9d5;strokeColor=#ae4132;exitX=0.5;exitY=1;exitDx=0;exitDy=0;entryX=0.5;entryY=1;entryDx=0;entryDy=0;rounded=0;" edge="1" parent="1" source="66" target="6">
                    <mxGeometry width="50" height="50" relative="1" as="geometry">
                        <mxPoint x="790" y="710" as="sourcePoint"/>
                        <mxPoint x="170" y="170.0000000000001" as="targetPoint"/>
                        <Array as="points">
                            <mxPoint x="780" y="760"/>
                            <mxPoint x="460" y="760"/>
                        </Array>
                    </mxGeometry>
                </mxCell>
                <mxCell id="70" value="" style="endArrow=classic;html=1;fillColor=#fad9d5;strokeColor=#ae4132;entryX=0;entryY=0.5;entryDx=0;entryDy=0;rounded=0;" edge="1" parent="1" target="14">
                    <mxGeometry width="50" height="50" relative="1" as="geometry">
                        <mxPoint x="120" y="260" as="sourcePoint"/>
                        <mxPoint x="140" y="400.0000000000001" as="targetPoint"/>
                        <Array as="points">
                            <mxPoint x="80" y="260"/>
                            <mxPoint x="120" y="260"/>
                        </Array>
                    </mxGeometry>
                </mxCell>
                <mxCell id="71" value="" style="endArrow=classic;html=1;fillColor=#fad9d5;strokeColor=#ae4132;exitX=0;exitY=0.5;exitDx=0;exitDy=0;entryX=1;entryY=0.5;entryDx=0;entryDy=0;rounded=0;startArrow=classic;startFill=1;" edge="1" parent="1" source="29" target="66">
                    <mxGeometry width="50" height="50" relative="1" as="geometry">
                        <mxPoint x="1210" y="450" as="sourcePoint"/>
                        <mxPoint x="1130" y="360" as="targetPoint"/>
                        <Array as="points">
                            <mxPoint x="900" y="260"/>
                            <mxPoint x="900" y="680"/>
                        </Array>
                    </mxGeometry>
                </mxCell>
                <mxCell id="73" value="" style="endArrow=classic;html=1;fillColor=#fad9d5;strokeColor=#ae4132;entryX=0;entryY=0.75;entryDx=0;entryDy=0;rounded=0;" edge="1" parent="1" target="61">
                    <mxGeometry width="50" height="50" relative="1" as="geometry">
                        <mxPoint x="900" y="580" as="sourcePoint"/>
                        <mxPoint x="850" y="590" as="targetPoint"/>
                        <Array as="points">
                            <mxPoint x="900" y="580"/>
                            <mxPoint x="900" y="800"/>
                            <mxPoint x="20" y="800"/>
                            <mxPoint x="20" y="450"/>
                        </Array>
                    </mxGeometry>
                </mxCell>
                <mxCell id="74" value="" style="endArrow=classic;html=1;fillColor=#fad9d5;strokeColor=#ae4132;entryX=1;entryY=0.5;entryDx=0;entryDy=0;rounded=0;" edge="1" parent="1" target="26">
                    <mxGeometry width="50" height="50" relative="1" as="geometry">
                        <mxPoint x="900" y="420" as="sourcePoint"/>
                        <mxPoint x="970" y="590.0000000000001" as="targetPoint"/>
                        <Array as="points">
                            <mxPoint x="900" y="420"/>
                        </Array>
                    </mxGeometry>
                </mxCell>
                <mxCell id="75" value="" style="endArrow=classic;html=1;exitX=0.5;exitY=0;exitDx=0;exitDy=0;entryX=0.5;entryY=1;entryDx=0;entryDy=0;fillColor=#fad9d5;strokeColor=#ae4132;startArrow=classic;startFill=1;" edge="1" parent="1" source="41" target="29">
                    <mxGeometry width="50" height="50" relative="1" as="geometry">
                        <mxPoint x="770" y="420" as="sourcePoint"/>
                        <mxPoint x="820" y="370" as="targetPoint"/>
                    </mxGeometry>
                </mxCell>
                <mxCell id="76" value="" style="endArrow=classic;html=1;exitX=0;exitY=0.5;exitDx=0;exitDy=0;rounded=0;fillColor=#fad9d5;strokeColor=#ae4132;" edge="1" parent="1" source="38">
                    <mxGeometry width="50" height="50" relative="1" as="geometry">
                        <mxPoint x="710" y="370" as="sourcePoint"/>
                        <mxPoint x="900" y="260" as="targetPoint"/>
                        <Array as="points">
                            <mxPoint x="900" y="100"/>
                        </Array>
                    </mxGeometry>
                </mxCell>
                <mxCell id="31" value="" style="endArrow=classic;startArrow=classic;html=1;exitX=0.5;exitY=0;exitDx=0;exitDy=0;entryX=0.5;entryY=1;entryDx=0;entryDy=0;fillColor=#b0e3e6;strokeColor=#0e8088;rounded=0;" edge="1" parent="1" source="4" target="13">
                    <mxGeometry width="50" height="50" relative="1" as="geometry">
                        <mxPoint x="450" y="440" as="sourcePoint"/>
                        <mxPoint x="260" y="520" as="targetPoint"/>
                        <Array as="points">
                            <mxPoint x="300" y="590"/>
                            <mxPoint x="360" y="590"/>
                        </Array>
                    </mxGeometry>
                </mxCell>
                <mxCell id="85" value="" style="endArrow=classic;startArrow=classic;html=1;exitX=0.5;exitY=0;exitDx=0;exitDy=0;entryX=0.75;entryY=1;entryDx=0;entryDy=0;fillColor=#b0e3e6;strokeColor=#0e8088;rounded=0;" edge="1" parent="1" source="83" target="2">
                    <mxGeometry width="50" height="50" relative="1" as="geometry">
                        <mxPoint x="440" y="580" as="sourcePoint"/>
                        <mxPoint x="440" y="540" as="targetPoint"/>
                        <Array as="points">
                            <mxPoint x="620" y="430"/>
                            <mxPoint x="570" y="430"/>
                        </Array>
                    </mxGeometry>
                </mxCell>
                <mxCell id="83" value="3.3VA&amp;lt;-&amp;gt;5V" style="rounded=1;whiteSpace=wrap;html=1;fillColor=none;" vertex="1" parent="1">
                    <mxGeometry x="560" y="520" width="120" height="40" as="geometry"/>
                </mxCell>
                <mxCell id="84" value="" style="endArrow=classic;startArrow=classic;html=1;exitX=0.5;exitY=0;exitDx=0;exitDy=0;entryX=0.5;entryY=1;entryDx=0;entryDy=0;fillColor=#b0e3e6;strokeColor=#0e8088;rounded=0;" edge="1" parent="1" source="80" target="83">
                    <mxGeometry width="50" height="50" relative="1" as="geometry">
                        <mxPoint x="470" y="570" as="sourcePoint"/>
                        <mxPoint x="470" y="530" as="targetPoint"/>
                    </mxGeometry>
                </mxCell>
                <mxCell id="81" value="&lt;font style=&quot;font-size: 20px&quot;&gt;Servo&lt;/font&gt;" style="text;html=1;strokeColor=none;fillColor=none;align=center;verticalAlign=middle;whiteSpace=wrap;rounded=0;" vertex="1" parent="1">
                    <mxGeometry x="600" y="670" width="40" height="20" as="geometry"/>
                </mxCell>
                <mxCell id="80" value="" style="rounded=1;whiteSpace=wrap;html=1;fillColor=none;" vertex="1" parent="1">
                    <mxGeometry x="560" y="620" width="120" height="120" as="geometry"/>
                </mxCell>
                <mxCell id="86" value="" style="endArrow=classic;html=1;fillColor=#fad9d5;strokeColor=#ae4132;entryX=0.5;entryY=1;entryDx=0;entryDy=0;" edge="1" parent="1" target="80">
                    <mxGeometry width="50" height="50" relative="1" as="geometry">
                        <mxPoint x="620" y="760" as="sourcePoint"/>
                        <mxPoint x="630" y="760" as="targetPoint"/>
                    </mxGeometry>
                </mxCell>
                <mxCell id="87" value="" style="endArrow=classic;html=1;fillColor=#fad9d5;strokeColor=#ae4132;entryX=0;entryY=0.75;entryDx=0;entryDy=0;rounded=0;" edge="1" parent="1" target="8">
                    <mxGeometry width="50" height="50" relative="1" as="geometry">
                        <mxPoint x="690" y="260" as="sourcePoint"/>
                        <mxPoint x="650" y="340" as="targetPoint"/>
                        <Array as="points">
                            <mxPoint x="690" y="260"/>
                            <mxPoint x="690" y="130"/>
                        </Array>
                    </mxGeometry>
                </mxCell>
                <mxCell id="88" value="" style="endArrow=classic;html=1;fillColor=#fad9d5;strokeColor=#ae4132;entryX=0;entryY=0.5;entryDx=0;entryDy=0;rounded=0;" edge="1" parent="1" target="53">
                    <mxGeometry width="50" height="50" relative="1" as="geometry">
                        <mxPoint x="690" y="330" as="sourcePoint"/>
                        <mxPoint x="730" y="140" as="targetPoint"/>
                        <Array as="points">
                            <mxPoint x="690" y="330"/>
                            <mxPoint x="690" y="260"/>
                        </Array>
                    </mxGeometry>
                </mxCell>
                <mxCell id="89" value="" style="endArrow=classic;startArrow=classic;html=1;entryX=0;entryY=0.25;entryDx=0;entryDy=0;exitX=1;exitY=0.25;exitDx=0;exitDy=0;fillColor=#b0e3e6;strokeColor=#0e8088;" edge="1" parent="1" source="8" target="38">
                    <mxGeometry width="50" height="50" relative="1" as="geometry">
                        <mxPoint x="700" y="270" as="sourcePoint"/>
                        <mxPoint x="750" y="220" as="targetPoint"/>
                    </mxGeometry>
                </mxCell>
                <mxCell id="92" value="" style="endArrow=classic;html=1;fillColor=#fad9d5;strokeColor=#ae4132;exitX=0.5;exitY=1;exitDx=0;exitDy=0;entryX=0.75;entryY=0;entryDx=0;entryDy=0;rounded=0;" edge="1" parent="1" source="26" target="83">
                    <mxGeometry width="50" height="50" relative="1" as="geometry">
                        <mxPoint x="550" y="600" as="sourcePoint"/>
                        <mxPoint x="600" y="550" as="targetPoint"/>
                        <Array as="points">
                            <mxPoint x="780" y="500"/>
                            <mxPoint x="650" y="500"/>
                        </Array>
                    </mxGeometry>
                </mxCell>
                <mxCell id="93" value="" style="endArrow=classic;html=1;fillColor=#fad9d5;strokeColor=#ae4132;entryX=0.75;entryY=0;entryDx=0;entryDy=0;rounded=0;" edge="1" parent="1" target="13">
                    <mxGeometry width="50" height="50" relative="1" as="geometry">
                        <mxPoint x="650" y="500" as="sourcePoint"/>
                        <mxPoint x="690" y="550" as="targetPoint"/>
                        <Array as="points">
                            <mxPoint x="390" y="500"/>
                        </Array>
                    </mxGeometry>
                </mxCell>
                <mxCell id="94" value="" style="endArrow=classic;html=1;entryX=1;entryY=0.5;entryDx=0;entryDy=0;rounded=0;fillColor=#fad9d5;strokeColor=#ae4132;" edge="1" parent="1" target="13">
                    <mxGeometry width="50" height="50" relative="1" as="geometry">
                        <mxPoint x="540" y="760" as="sourcePoint"/>
                        <mxPoint x="600" y="550" as="targetPoint"/>
                        <Array as="points">
                            <mxPoint x="540" y="540"/>
                        </Array>
                    </mxGeometry>
                </mxCell>
                <mxCell id="95" value="" style="endArrow=classic;html=1;entryX=1;entryY=0.5;entryDx=0;entryDy=0;rounded=0;fillColor=#fad9d5;strokeColor=#ae4132;exitX=0.5;exitY=0;exitDx=0;exitDy=0;" edge="1" parent="1" source="66" target="83">
                    <mxGeometry width="50" height="50" relative="1" as="geometry">
                        <mxPoint x="780" y="590" as="sourcePoint"/>
                        <mxPoint x="600" y="550" as="targetPoint"/>
                        <Array as="points">
                            <mxPoint x="780" y="540"/>
                        </Array>
                    </mxGeometry>
                </mxCell>
                <mxCell id="99" value="" style="rounded=1;whiteSpace=wrap;html=1;strokeColor=#FAD9D5;fillColor=none;" vertex="1" parent="1">
                    <mxGeometry x="920" width="200" height="520" as="geometry"/>
                </mxCell>
                <mxCell id="100" value="" style="group" vertex="1" connectable="0" parent="1">
                    <mxGeometry x="240" y="620" width="120" height="120" as="geometry"/>
                </mxCell>
                <mxCell id="4" value="" style="rounded=1;whiteSpace=wrap;html=1;fillColor=none;" vertex="1" parent="100">
                    <mxGeometry width="120" height="120" as="geometry"/>
                </mxCell>
                <mxCell id="5" value="&lt;font style=&quot;font-size: 20px&quot;&gt;Current&lt;/font&gt;" style="text;html=1;strokeColor=none;fillColor=none;align=center;verticalAlign=middle;whiteSpace=wrap;rounded=0;" vertex="1" parent="100">
                    <mxGeometry x="40" y="50" width="40" height="20" as="geometry"/>
                </mxCell>
                <mxCell id="101" value="" style="group" vertex="1" connectable="0" parent="1">
                    <mxGeometry x="80" y="620" width="120" height="120" as="geometry"/>
                </mxCell>
                <mxCell id="102" value="" style="rounded=1;whiteSpace=wrap;html=1;fillColor=none;" vertex="1" parent="101">
                    <mxGeometry width="120" height="120" as="geometry"/>
                </mxCell>
                <mxCell id="103" value="&lt;font style=&quot;font-size: 20px&quot;&gt;ToF&lt;br&gt;&lt;/font&gt;" style="text;html=1;strokeColor=none;fillColor=none;align=center;verticalAlign=middle;whiteSpace=wrap;rounded=0;" vertex="1" parent="101">
                    <mxGeometry x="40" y="50" width="40" height="20" as="geometry"/>
                </mxCell>
                <mxCell id="104" value="" style="endArrow=classic;html=1;fillColor=#fad9d5;strokeColor=#ae4132;entryX=0.5;entryY=1;entryDx=0;entryDy=0;rounded=0;" edge="1" parent="1">
                    <mxGeometry width="50" height="50" relative="1" as="geometry">
                        <mxPoint x="300" y="760" as="sourcePoint"/>
                        <mxPoint x="140" y="740" as="targetPoint"/>
                        <Array as="points">
                            <mxPoint x="140" y="760"/>
                        </Array>
                    </mxGeometry>
                </mxCell>
                <mxCell id="105" value="" style="endArrow=none;startArrow=classic;html=1;exitX=0.5;exitY=0;exitDx=0;exitDy=0;fillColor=#b0e3e6;strokeColor=#0e8088;rounded=0;endFill=0;" edge="1" parent="1" source="102">
                    <mxGeometry width="50" height="50" relative="1" as="geometry">
                        <mxPoint x="310" y="630" as="sourcePoint"/>
                        <mxPoint x="300" y="590" as="targetPoint"/>
                        <Array as="points">
                            <mxPoint x="140" y="590"/>
                        </Array>
                    </mxGeometry>
                </mxCell>
            </root>
        </mxGraphModel>
    </diagram>
</mxfile>